<svg width="375" height="132" viewBox="0 0 375 132" fill="none" xmlns="http://www.w3.org/2000/svg">
<path d="M60.3175 45V0.636362H86.9183V5.40199H65.6896V20.392H84.9254V25.1577H65.6896V45H60.3175ZM95.0686 45V11.7273H100.008V16.7528H100.354C100.961 15.1065 102.058 13.7707 103.647 12.7454C105.235 11.72 107.026 11.2074 109.019 11.2074C109.394 11.2074 109.864 11.2146 110.427 11.229C110.99 11.2435 111.416 11.2652 111.705 11.294V16.4929C111.532 16.4496 111.135 16.3846 110.514 16.2979C109.907 16.1969 109.264 16.1463 108.586 16.1463C106.968 16.1463 105.524 16.4857 104.253 17.1644C102.997 17.8287 102 18.753 101.264 19.9371C100.542 21.1069 100.181 22.4427 100.181 23.9446V45H95.0686ZM130.269 45.6932C127.265 45.6932 124.63 44.9783 122.363 43.5487C120.11 42.119 118.348 40.1188 117.077 37.5483C115.821 34.9777 115.193 31.974 115.193 28.5369C115.193 25.071 115.821 22.0456 117.077 19.4606C118.348 16.8756 120.11 14.8683 122.363 13.4386C124.63 12.0089 127.265 11.294 130.269 11.294C133.273 11.294 135.901 12.0089 138.154 13.4386C140.421 14.8683 142.183 16.8756 143.44 19.4606C144.711 22.0456 145.346 25.071 145.346 28.5369C145.346 31.974 144.711 34.9777 143.44 37.5483C142.183 40.1188 140.421 42.119 138.154 43.5487C135.901 44.9783 133.273 45.6932 130.269 45.6932ZM130.269 41.1009C132.551 41.1009 134.428 40.516 135.901 39.3462C137.374 38.1765 138.465 36.6385 139.172 34.7322C139.88 32.826 140.234 30.7609 140.234 28.5369C140.234 26.313 139.88 24.2406 139.172 22.32C138.465 20.3993 137.374 18.8468 135.901 17.6626C134.428 16.4785 132.551 15.8864 130.269 15.8864C127.988 15.8864 126.11 16.4785 124.637 17.6626C123.164 18.8468 122.074 20.3993 121.366 22.32C120.659 24.2406 120.305 26.313 120.305 28.5369C120.305 30.7609 120.659 32.826 121.366 34.7322C122.074 36.6385 123.164 38.1765 124.637 39.3462C126.11 40.516 127.988 41.1009 130.269 41.1009ZM158.262 24.9844V45H153.15V11.7273H158.089V16.9261H158.522C159.302 15.2365 160.486 13.879 162.074 12.8537C163.663 11.8139 165.714 11.294 168.226 11.294C170.479 11.294 172.45 11.7562 174.14 12.6804C175.83 13.5902 177.144 14.9766 178.083 16.8395C179.021 18.688 179.491 21.0275 179.491 23.858V45H174.378V24.2045C174.378 21.5907 173.7 19.5545 172.342 18.0959C170.985 16.6229 169.122 15.8864 166.753 15.8864C165.122 15.8864 163.663 16.2402 162.378 16.9478C161.107 17.6554 160.103 18.688 159.367 20.0455C158.63 21.4029 158.262 23.0492 158.262 24.9844ZM203.302 11.7273V16.0597H186.06V11.7273H203.302ZM191.085 3.75568H196.197V35.4688C196.197 36.9129 196.407 37.996 196.826 38.718C197.259 39.4257 197.808 39.9022 198.472 40.1477C199.151 40.3788 199.865 40.4943 200.616 40.4943C201.18 40.4943 201.642 40.4654 202.003 40.4077C202.364 40.3355 202.653 40.2777 202.869 40.2344L203.909 44.8267C203.562 44.9567 203.079 45.0866 202.458 45.2166C201.837 45.361 201.05 45.4332 200.097 45.4332C198.652 45.4332 197.237 45.1228 195.851 44.5018C194.479 43.8808 193.338 42.9349 192.428 41.6641C191.533 40.3932 191.085 38.7902 191.085 36.8551V3.75568ZM212.4 45V0.636362H239.175V5.40199H217.773V20.392H237.788V25.1577H217.773V40.2344H239.521V45H212.4ZM253.277 24.9844V45H248.164V11.7273H253.103V16.9261H253.536C254.316 15.2365 255.501 13.879 257.089 12.8537C258.678 11.8139 260.728 11.294 263.241 11.294C265.494 11.294 267.465 11.7562 269.155 12.6804C270.844 13.5902 272.159 14.9766 273.097 16.8395C274.036 18.688 274.505 21.0275 274.505 23.858V45H269.393V24.2045C269.393 21.5907 268.714 19.5545 267.357 18.0959C265.999 16.6229 264.136 15.8864 261.768 15.8864C260.136 15.8864 258.678 16.2402 257.392 16.9478C256.121 17.6554 255.118 18.688 254.381 20.0455C253.645 21.4029 253.277 23.0492 253.277 24.9844ZM296.411 45.6932C293.638 45.6932 291.19 44.9928 289.067 43.592C286.945 42.1767 285.284 40.1838 284.085 37.6133C282.887 35.0283 282.287 31.974 282.287 28.4503C282.287 24.9555 282.887 21.9228 284.085 19.3523C285.284 16.7817 286.952 14.796 289.089 13.3952C291.226 11.9944 293.696 11.294 296.498 11.294C298.664 11.294 300.375 11.6551 301.631 12.3771C302.902 13.0848 303.87 13.8935 304.534 14.8033C305.213 15.6986 305.74 16.4351 306.115 17.0128H306.549V0.636362H311.661V45H306.722V39.8878H306.115C305.74 40.4943 305.206 41.2597 304.512 42.1839C303.819 43.0937 302.83 43.9097 301.545 44.6317C300.259 45.3394 298.548 45.6932 296.411 45.6932ZM297.104 41.1009C299.155 41.1009 300.888 40.5665 302.303 39.4979C303.718 38.4148 304.794 36.9201 305.531 35.0138C306.267 33.0932 306.635 30.8764 306.635 28.3636C306.635 25.8797 306.274 23.7063 305.552 21.8434C304.83 19.966 303.761 18.5075 302.346 17.4677C300.931 16.4135 299.184 15.8864 297.104 15.8864C294.938 15.8864 293.133 16.4424 291.689 17.5543C290.259 18.6519 289.183 20.1465 288.461 22.0384C287.753 23.9157 287.4 26.0241 287.4 28.3636C287.4 30.732 287.761 32.8838 288.483 34.8189C289.219 36.7396 290.302 38.2704 291.732 39.4112C293.176 40.5376 294.967 41.1009 297.104 41.1009ZM14.5566 119H0.8663V74.6364H15.1632C19.4667 74.6364 23.1492 75.5245 26.2108 77.3008C29.2723 79.0626 31.619 81.5971 33.2509 84.9041C34.8828 88.1967 35.6987 92.1392 35.6987 96.7315C35.6987 101.353 34.8755 105.331 33.2292 108.667C31.5829 111.989 29.1857 114.545 26.0375 116.336C22.8893 118.112 19.0623 119 14.5566 119ZM6.23846 114.234H14.2101C17.8781 114.234 20.918 113.527 23.3297 112.112C25.7414 110.696 27.5394 108.682 28.7235 106.068C29.9077 103.454 30.4998 100.342 30.4998 96.7315C30.4998 93.1501 29.9149 90.0669 28.7452 87.4819C27.5755 84.8825 25.8281 82.8896 23.503 81.5032C21.178 80.1024 18.2825 79.402 14.8166 79.402H6.23846V114.234ZM57.9672 119.693C54.7612 119.693 51.9957 118.986 49.6706 117.57C47.36 116.141 45.5765 114.148 44.3201 111.592C43.0782 109.021 42.4572 106.032 42.4572 102.624C42.4572 99.2154 43.0782 96.2116 44.3201 93.6122C45.5765 90.9983 47.3239 88.9621 49.5623 87.5035C51.8152 86.0305 54.4435 85.294 57.4473 85.294C59.1802 85.294 60.8915 85.5829 62.5811 86.1605C64.2708 86.7382 65.8088 87.6768 67.1951 88.9766C68.5815 90.2618 69.6863 91.9659 70.5094 94.0888C71.3326 96.2116 71.7441 98.8255 71.7441 101.93V104.097H46.0964V99.6776H66.5453C66.5453 97.8002 66.1698 96.125 65.4189 94.652C64.6824 93.179 63.6281 92.0165 62.2562 91.1644C60.8987 90.3124 59.2958 89.8864 57.4473 89.8864C55.411 89.8864 53.6492 90.3918 52.1618 91.4027C50.6887 92.3991 49.5551 93.6989 48.7608 95.3018C47.9666 96.9048 47.5694 98.6233 47.5694 100.457V103.403C47.5694 105.916 48.0027 108.046 48.8691 109.794C49.7501 111.527 50.9703 112.848 52.53 113.758C54.0897 114.653 55.902 115.101 57.9672 115.101C59.3102 115.101 60.5233 114.913 61.6064 114.538C62.7039 114.148 63.6498 113.57 64.4441 112.805C65.2383 112.025 65.8521 111.057 66.2853 109.902L71.2243 111.288C70.7044 112.964 69.8307 114.437 68.6032 115.707C67.3757 116.964 65.8593 117.946 64.0542 118.653C62.249 119.347 60.22 119.693 57.9672 119.693ZM105.715 85.7273L93.4115 119H88.2126L75.9086 85.7273H81.4541L90.6388 112.241H90.9854L100.17 85.7273H105.715ZM125.222 119.693C122.016 119.693 119.251 118.986 116.926 117.57C114.615 116.141 112.831 114.148 111.575 111.592C110.333 109.021 109.712 106.032 109.712 102.624C109.712 99.2154 110.333 96.2116 111.575 93.6122C112.831 90.9983 114.579 88.9621 116.817 87.5035C119.07 86.0305 121.698 85.294 124.702 85.294C126.435 85.294 128.146 85.5829 129.836 86.1605C131.526 86.7382 133.064 87.6768 134.45 88.9766C135.836 90.2618 136.941 91.9659 137.764 94.0888C138.587 96.2116 138.999 98.8255 138.999 101.93V104.097H113.351V99.6776H133.8C133.8 97.8002 133.425 96.125 132.674 94.652C131.937 93.179 130.883 92.0165 129.511 91.1644C128.154 90.3124 126.551 89.8864 124.702 89.8864C122.666 89.8864 120.904 90.3918 119.417 91.4027C117.944 92.3991 116.81 93.6989 116.016 95.3018C115.221 96.9048 114.824 98.6233 114.824 100.457V103.403C114.824 105.916 115.258 108.046 116.124 109.794C117.005 111.527 118.225 112.848 119.785 113.758C121.345 114.653 123.157 115.101 125.222 115.101C126.565 115.101 127.778 114.913 128.861 114.538C129.959 114.148 130.905 113.57 131.699 112.805C132.493 112.025 133.107 111.057 133.54 109.902L138.479 111.288C137.959 112.964 137.086 114.437 135.858 115.707C134.631 116.964 133.114 117.946 131.309 118.653C129.504 119.347 127.475 119.693 125.222 119.693ZM151.888 74.6364V119H146.776V74.6364H151.888ZM174.768 119.693C171.765 119.693 169.129 118.978 166.862 117.549C164.609 116.119 162.847 114.119 161.576 111.548C160.32 108.978 159.692 105.974 159.692 102.537C159.692 99.071 160.32 96.0456 161.576 93.4606C162.847 90.8756 164.609 88.8683 166.862 87.4386C169.129 86.0089 171.765 85.294 174.768 85.294C177.772 85.294 180.4 86.0089 182.653 87.4386C184.921 88.8683 186.682 90.8756 187.939 93.4606C189.21 96.0456 189.845 99.071 189.845 102.537C189.845 105.974 189.21 108.978 187.939 111.548C186.682 114.119 184.921 116.119 182.653 117.549C180.4 118.978 177.772 119.693 174.768 119.693ZM174.768 115.101C177.05 115.101 178.927 114.516 180.4 113.346C181.873 112.176 182.964 110.638 183.671 108.732C184.379 106.826 184.733 104.761 184.733 102.537C184.733 100.313 184.379 98.2406 183.671 96.32C182.964 94.3993 181.873 92.8468 180.4 91.6626C178.927 90.4785 177.05 89.8864 174.768 89.8864C172.487 89.8864 170.609 90.4785 169.136 91.6626C167.663 92.8468 166.573 94.3993 165.865 96.32C165.158 98.2406 164.804 100.313 164.804 102.537C164.804 104.761 165.158 106.826 165.865 108.732C166.573 110.638 167.663 112.176 169.136 113.346C170.609 114.516 172.487 115.101 174.768 115.101ZM197.649 131.477V85.7273H202.588V91.0128H203.194C203.57 90.4351 204.09 89.6986 204.754 88.8033C205.433 87.8935 206.4 87.0848 207.657 86.3771C208.927 85.6551 210.646 85.294 212.812 85.294C215.614 85.294 218.083 85.9944 220.22 87.3952C222.358 88.796 224.026 90.7817 225.224 93.3523C226.423 95.9228 227.022 98.9555 227.022 102.45C227.022 105.974 226.423 109.028 225.224 111.613C224.026 114.184 222.365 116.177 220.242 117.592C218.119 118.993 215.671 119.693 212.899 119.693C210.761 119.693 209.05 119.339 207.765 118.632C206.48 117.91 205.49 117.094 204.797 116.184C204.104 115.26 203.57 114.494 203.194 113.888H202.761V131.477H197.649ZM202.674 102.364C202.674 104.876 203.043 107.093 203.779 109.014C204.516 110.92 205.591 112.415 207.007 113.498C208.422 114.567 210.155 115.101 212.206 115.101C214.343 115.101 216.126 114.538 217.556 113.411C219 112.27 220.083 110.74 220.805 108.819C221.542 106.884 221.91 104.732 221.91 102.364C221.91 100.024 221.549 97.9157 220.827 96.0384C220.119 94.1465 219.043 92.6519 217.599 91.5543C216.17 90.4424 214.372 89.8864 212.206 89.8864C210.126 89.8864 208.379 90.4135 206.963 91.4677C205.548 92.5075 204.479 93.966 203.757 95.8434C203.035 97.7063 202.674 99.8797 202.674 102.364ZM234.821 119V85.7273H239.759V90.9261H240.193C240.886 89.1499 242.005 87.7707 243.55 86.7887C245.096 85.7923 246.951 85.294 249.117 85.294C251.313 85.294 253.139 85.7923 254.598 86.7887C256.071 87.7707 257.219 89.1499 258.042 90.9261H258.389C259.241 89.2076 260.519 87.8429 262.223 86.832C263.927 85.8067 265.97 85.294 268.353 85.294C271.328 85.294 273.762 86.2255 275.653 88.0884C277.545 89.9369 278.491 92.8179 278.491 96.7315V119H273.379V96.7315C273.379 94.2765 272.707 92.5219 271.364 91.4677C270.021 90.4135 268.44 89.8864 266.62 89.8864C264.281 89.8864 262.468 90.594 261.183 92.0092C259.898 93.41 259.255 95.1863 259.255 97.3381V119H254.056V96.2116C254.056 94.3198 253.443 92.7963 252.215 91.641C250.988 90.4712 249.406 89.8864 247.471 89.8864C246.143 89.8864 244.901 90.2402 243.745 90.9478C242.604 91.6554 241.68 92.6374 240.973 93.8938C240.279 95.1358 239.933 96.5727 239.933 98.2045V119H234.821ZM301.788 119.693C298.582 119.693 295.817 118.986 293.492 117.57C291.181 116.141 289.398 114.148 288.141 111.592C286.899 109.021 286.278 106.032 286.278 102.624C286.278 99.2154 286.899 96.2116 288.141 93.6122C289.398 90.9983 291.145 88.9621 293.384 87.5035C295.636 86.0305 298.265 85.294 301.269 85.294C303.002 85.294 304.713 85.5829 306.402 86.1605C308.092 86.7382 309.63 87.6768 311.016 88.9766C312.403 90.2618 313.508 91.9659 314.331 94.0888C315.154 96.2116 315.565 98.8255 315.565 101.93V104.097H289.918V99.6776H310.367C310.367 97.8002 309.991 96.125 309.24 94.652C308.504 93.179 307.449 92.0165 306.078 91.1644C304.72 90.3124 303.117 89.8864 301.269 89.8864C299.232 89.8864 297.47 90.3918 295.983 91.4027C294.51 92.3991 293.376 93.6989 292.582 95.3018C291.788 96.9048 291.391 98.6233 291.391 100.457V103.403C291.391 105.916 291.824 108.046 292.69 109.794C293.571 111.527 294.792 112.848 296.351 113.758C297.911 114.653 299.723 115.101 301.788 115.101C303.131 115.101 304.345 114.913 305.428 114.538C306.525 114.148 307.471 113.57 308.265 112.805C309.06 112.025 309.673 111.057 310.107 109.902L315.046 111.288C314.526 112.964 313.652 114.437 312.424 115.707C311.197 116.964 309.681 117.946 307.875 118.653C306.07 119.347 304.041 119.693 301.788 119.693ZM328.454 98.9844V119H323.342V85.7273H328.281V90.9261H328.714C329.494 89.2365 330.678 87.879 332.267 86.8537C333.855 85.8139 335.906 85.294 338.419 85.294C340.672 85.294 342.643 85.7562 344.332 86.6804C346.022 87.5902 347.336 88.9766 348.275 90.8395C349.214 92.688 349.683 95.0275 349.683 97.858V119H344.571V98.2045C344.571 95.5907 343.892 93.5545 342.535 92.0959C341.177 90.6229 339.314 89.8864 336.946 89.8864C335.314 89.8864 333.855 90.2402 332.57 90.9478C331.299 91.6554 330.296 92.688 329.559 94.0455C328.823 95.4029 328.454 97.0492 328.454 98.9844ZM373.495 85.7273V90.0597H356.252V85.7273H373.495ZM361.278 77.7557H366.39V109.469C366.39 110.913 366.599 111.996 367.018 112.718C367.451 113.426 368 113.902 368.664 114.148C369.343 114.379 370.058 114.494 370.809 114.494C371.372 114.494 371.834 114.465 372.195 114.408C372.556 114.335 372.845 114.278 373.062 114.234L374.101 118.827C373.755 118.957 373.271 119.087 372.65 119.217C372.029 119.361 371.242 119.433 370.289 119.433C368.845 119.433 367.43 119.123 366.043 118.502C364.671 117.881 363.53 116.935 362.621 115.664C361.725 114.393 361.278 112.79 361.278 110.855V77.7557Z" fill="#1F1E1D"/>
</svg>
