<svg width="250" height="134" viewBox="0 0 250 134" fill="none" xmlns="http://www.w3.org/2000/svg">
<path d="M32.1041 15.5C31.6276 14.0414 30.9994 12.7345 30.2195 11.5792C29.4542 10.4094 28.5371 9.413 27.4685 8.58984C26.4143 7.76669 25.2156 7.13849 23.8726 6.70525C22.5296 6.27202 21.0566 6.0554 19.4536 6.0554C16.8253 6.0554 14.4352 6.73414 12.2835 8.09162C10.1317 9.4491 8.42043 11.4492 7.14959 14.092C5.87876 16.7347 5.24334 19.9768 5.24334 23.8182C5.24334 27.6596 5.88598 30.9016 7.17125 33.5444C8.45653 36.1871 10.1967 38.1873 12.3918 39.5447C14.5869 40.9022 17.0563 41.581 19.8002 41.581C22.3418 41.581 24.5802 41.0394 26.5154 39.9563C28.4649 38.8588 29.9813 37.3136 31.0644 35.3207C32.1619 33.3133 32.7107 30.9522 32.7107 28.2372L34.357 28.5838H21.0132V23.8182H37.9095V28.5838C37.9095 32.2375 37.1297 35.4145 35.57 38.1151C34.0248 40.8156 31.8875 42.9096 29.1581 44.397C26.4432 45.87 23.3238 46.6065 19.8002 46.6065C15.8721 46.6065 12.4207 45.6823 9.44576 43.8338C6.48529 41.9853 4.17469 39.357 2.51394 35.9489C0.867632 32.5407 0.0444781 28.4972 0.0444781 23.8182C0.0444781 20.3089 0.51382 17.1535 1.4525 14.3519C2.40563 11.5359 3.74867 9.13861 5.48162 7.16016C7.21458 5.1817 9.26524 3.66536 11.6336 2.61115C14.002 1.55694 16.6086 1.02983 19.4536 1.02983C21.7931 1.02983 23.9737 1.38364 25.9955 2.09126C28.0317 2.78444 29.8441 3.77367 31.4326 5.05895C33.0356 6.32978 34.3714 7.85334 35.4401 9.62962C36.5087 11.3915 37.2452 13.3482 37.6496 15.5H32.1041ZM46.4173 46V12.7273H51.3562V17.7528H51.7028C52.3093 16.1065 53.4068 14.7707 54.9954 13.7454C56.5839 12.72 58.3746 12.2074 60.3675 12.2074C60.743 12.2074 61.2124 12.2146 61.7756 12.229C62.3388 12.2435 62.7648 12.2652 63.0536 12.294V17.4929C62.8803 17.4496 62.4832 17.3846 61.8622 17.2979C61.2557 17.1969 60.613 17.1463 59.9343 17.1463C58.3169 17.1463 56.8728 17.4857 55.6019 18.1644C54.3455 18.8287 53.3491 19.753 52.6126 20.9371C51.8905 22.1069 51.5295 23.4427 51.5295 24.9446V46H46.4173ZM78.9047 46.7798C76.7963 46.7798 74.8828 46.3827 73.1643 45.5884C71.4458 44.7797 70.0811 43.6172 69.0702 42.1009C68.0593 40.5701 67.5539 38.7216 67.5539 36.5554C67.5539 34.6491 67.9294 33.1039 68.6803 31.9197C69.4313 30.7211 70.4349 29.7824 71.6913 29.1037C72.9477 28.425 74.3341 27.9195 75.8504 27.5874C77.3812 27.2408 78.9192 26.9664 80.4644 26.7642C82.4862 26.5043 84.1253 26.3093 85.3817 26.1793C86.6525 26.0349 87.5767 25.7966 88.1544 25.4645C88.7465 25.1323 89.0425 24.5547 89.0425 23.7315V23.5582C89.0425 21.4209 88.4577 19.7602 87.2879 18.576C86.1326 17.3918 84.378 16.7997 82.0241 16.7997C79.5835 16.7997 77.67 17.334 76.2836 18.4027C74.8973 19.4714 73.9225 20.6122 73.3593 21.8253L68.507 20.0923C69.3735 18.0705 70.5288 16.4964 71.9729 15.37C73.4315 14.2292 75.02 13.4349 76.7385 12.9872C78.4715 12.5251 80.1756 12.294 81.8508 12.294C82.9194 12.294 84.1469 12.424 85.5333 12.6839C86.9341 12.9294 88.2844 13.4421 89.5841 14.2219C90.8982 15.0018 91.9885 16.1787 92.855 17.7528C93.7215 19.3269 94.1547 21.4354 94.1547 24.0781V46H89.0425V41.4943H88.7826C88.436 42.2164 87.8583 42.989 87.0496 43.8121C86.2409 44.6353 85.165 45.3357 83.822 45.9134C82.479 46.491 80.8399 46.7798 78.9047 46.7798ZM79.6846 42.1875C81.7064 42.1875 83.4104 41.7904 84.7968 40.9961C86.1976 40.2018 87.2518 39.1765 87.9594 37.9201C88.6815 36.6637 89.0425 35.3423 89.0425 33.956V29.277C88.8259 29.5369 88.3493 29.7752 87.6128 29.9918C86.8908 30.194 86.0532 30.3745 85.1001 30.5334C84.1614 30.6778 83.2443 30.8078 82.349 30.9233C81.4681 31.0244 80.7532 31.111 80.2045 31.1832C78.8759 31.3565 77.6339 31.6381 76.4786 32.0281C75.3377 32.4035 74.4135 32.974 73.7059 33.7393C73.0127 34.4903 72.6661 35.5156 72.6661 36.8153C72.6661 38.5916 73.3232 39.9347 74.6373 40.8445C75.9659 41.7398 77.6483 42.1875 79.6846 42.1875ZM103.486 58.4773V12.7273H108.425V18.0128H109.031C109.407 17.4351 109.926 16.6986 110.591 15.8033C111.269 14.8935 112.237 14.0848 113.493 13.3771C114.764 12.6551 116.483 12.294 118.649 12.294C121.451 12.294 123.92 12.9944 126.057 14.3952C128.195 15.796 129.863 17.7817 131.061 20.3523C132.26 22.9228 132.859 25.9555 132.859 29.4503C132.859 32.974 132.26 36.0283 131.061 38.6133C129.863 41.1838 128.202 43.1767 126.079 44.592C123.956 45.9928 121.508 46.6932 118.736 46.6932C116.598 46.6932 114.887 46.3394 113.602 45.6317C112.316 44.9097 111.327 44.0937 110.634 43.1839C109.941 42.2597 109.407 41.4943 109.031 40.8878H108.598V58.4773H103.486ZM108.511 29.3636C108.511 31.8764 108.879 34.0932 109.616 36.0138C110.352 37.9201 111.428 39.4148 112.844 40.4979C114.259 41.5665 115.992 42.1009 118.042 42.1009C120.18 42.1009 121.963 41.5376 123.393 40.4112C124.837 39.2704 125.92 37.7396 126.642 35.8189C127.379 33.8838 127.747 31.732 127.747 29.3636C127.747 27.0241 127.386 24.9157 126.664 23.0384C125.956 21.1465 124.88 19.6519 123.436 18.5543C122.007 17.4424 120.209 16.8864 118.042 16.8864C115.963 16.8864 114.215 17.4135 112.8 18.4677C111.385 19.5075 110.316 20.966 109.594 22.8434C108.872 24.7063 108.511 26.8797 108.511 29.3636ZM145.77 25.9844V46H140.657V1.63636H145.77V17.9261H146.203C146.983 16.2076 148.153 14.8429 149.712 13.832C151.286 12.8067 153.38 12.294 155.994 12.294C158.261 12.294 160.247 12.7489 161.951 13.6587C163.655 14.5541 164.977 15.9332 165.915 17.7962C166.868 19.6446 167.345 21.9986 167.345 24.858V46H162.233V25.2045C162.233 22.5618 161.547 20.5183 160.175 19.0742C158.817 17.6156 156.933 16.8864 154.521 16.8864C152.846 16.8864 151.344 17.2402 150.015 17.9478C148.701 18.6554 147.662 19.688 146.896 21.0455C146.145 22.4029 145.77 24.0492 145.77 25.9844ZM176.698 46V12.7273H181.81V46H176.698ZM179.297 7.18182C178.301 7.18182 177.441 6.84245 176.719 6.16371C176.012 5.48497 175.658 4.66903 175.658 3.71591C175.658 2.76278 176.012 1.94685 176.719 1.26811C177.441 0.58937 178.301 0.25 179.297 0.25C180.293 0.25 181.145 0.58937 181.853 1.26811C182.575 1.94685 182.936 2.76278 182.936 3.71591C182.936 4.66903 182.575 5.48497 181.853 6.16371C181.145 6.84245 180.293 7.18182 179.297 7.18182ZM204.69 46.6932C201.571 46.6932 198.885 45.9567 196.632 44.4837C194.379 43.0107 192.646 40.9817 191.433 38.3967C190.22 35.8117 189.613 32.8584 189.613 29.5369C189.613 26.1577 190.234 23.1755 191.476 20.5906C192.733 17.9911 194.48 15.9621 196.719 14.5035C198.971 13.0305 201.6 12.294 204.604 12.294C206.943 12.294 209.051 12.7273 210.929 13.5938C212.806 14.4602 214.344 15.6733 215.543 17.233C216.741 18.7926 217.485 20.6122 217.774 22.6918H212.662C212.272 21.1754 211.405 19.8324 210.062 18.6626C208.734 17.4785 206.943 16.8864 204.69 16.8864C202.697 16.8864 200.95 17.4062 199.448 18.446C197.961 19.4714 196.798 20.9227 195.96 22.8001C195.137 24.663 194.726 26.8509 194.726 29.3636C194.726 31.9342 195.13 34.1726 195.939 36.0788C196.762 37.9851 197.917 39.4653 199.405 40.5195C200.907 41.5737 202.668 42.1009 204.69 42.1009C206.019 42.1009 207.225 41.8698 208.308 41.4077C209.391 40.9455 210.308 40.2812 211.059 39.4148C211.81 38.5483 212.344 37.5085 212.662 36.2955H217.774C217.485 38.2595 216.77 40.0285 215.629 41.6026C214.503 43.1623 213.008 44.4042 211.145 45.3285C209.297 46.2383 207.145 46.6932 204.69 46.6932ZM248.816 20.179L244.223 21.4787C243.934 20.7133 243.508 19.9696 242.945 19.2475C242.396 18.511 241.645 17.9045 240.692 17.4279C239.739 16.9513 238.519 16.7131 237.031 16.7131C234.995 16.7131 233.298 17.1824 231.941 18.1211C230.598 19.0453 229.926 20.2223 229.926 21.652C229.926 22.9228 230.388 23.9265 231.313 24.663C232.237 25.3995 233.681 26.0133 235.645 26.5043L240.584 27.7173C243.559 28.4394 245.776 29.5442 247.234 31.0316C248.693 32.5046 249.422 34.4036 249.422 36.7287C249.422 38.6349 248.873 40.339 247.776 41.8409C246.693 43.3428 245.176 44.527 243.227 45.3935C241.277 46.2599 239.01 46.6932 236.425 46.6932C233.031 46.6932 230.222 45.9567 227.998 44.4837C225.774 43.0107 224.366 40.8589 223.774 38.0284L228.627 36.8153C229.089 38.6061 229.962 39.9491 231.248 40.8445C232.547 41.7398 234.244 42.1875 236.338 42.1875C238.721 42.1875 240.613 41.6821 242.014 40.6712C243.429 39.6458 244.137 38.4183 244.137 36.9886C244.137 35.8333 243.732 34.8658 242.923 34.0859C242.115 33.2917 240.873 32.6996 239.198 32.3097L233.652 31.0099C230.605 30.2879 228.367 29.1687 226.937 27.6523C225.522 26.1216 224.814 24.2081 224.814 21.9119C224.814 20.0346 225.341 18.3738 226.395 16.9297C227.464 15.4856 228.915 14.3519 230.749 13.5288C232.598 12.7056 234.692 12.294 237.031 12.294C240.324 12.294 242.909 13.0161 244.786 14.4602C246.678 15.9044 248.021 17.8106 248.816 20.179ZM52.7886 120H39.0982V75.6364H53.3951C57.6986 75.6364 61.3811 76.5245 64.4427 78.3008C67.5042 80.0626 69.851 82.5971 71.4828 85.9041C73.1147 89.1967 73.9306 93.1392 73.9306 97.7315C73.9306 102.353 73.1075 106.331 71.4612 109.667C69.8149 112.989 67.4176 115.545 64.2694 117.336C61.1212 119.112 57.2943 120 52.7886 120ZM44.4704 115.234H52.442C56.1101 115.234 59.15 114.527 61.5617 113.112C63.9734 111.696 65.7713 109.682 66.9555 107.068C68.1397 104.454 68.7318 101.342 68.7318 97.7315C68.7318 94.1501 68.1469 91.0669 66.9771 88.4819C65.8074 85.8825 64.06 83.8896 61.735 82.5032C59.4099 81.1024 56.5144 80.402 53.0485 80.402H44.4704V115.234ZM96.1991 120.693C92.9931 120.693 90.2276 119.986 87.9026 118.57C85.592 117.141 83.8085 115.148 82.5521 112.592C81.3101 110.021 80.6891 107.032 80.6891 103.624C80.6891 100.215 81.3101 97.2116 82.5521 94.6122C83.8085 91.9983 85.5559 89.9621 87.7943 88.5035C90.0471 87.0305 92.6754 86.294 95.6792 86.294C97.4122 86.294 99.1234 86.5829 100.813 87.1605C102.503 87.7382 104.041 88.6768 105.427 89.9766C106.813 91.2618 107.918 92.9659 108.741 95.0888C109.564 97.2116 109.976 99.8255 109.976 102.93V105.097H84.3283V100.678H104.777C104.777 98.8002 104.402 97.125 103.651 95.652C102.914 94.179 101.86 93.0165 100.488 92.1644C99.1307 91.3124 97.5277 90.8864 95.6792 90.8864C93.643 90.8864 91.8811 91.3918 90.3937 92.4027C88.9207 93.3991 87.787 94.6989 86.9928 96.3018C86.1985 97.9048 85.8014 99.6233 85.8014 101.457V104.403C85.8014 106.916 86.2346 109.046 87.1011 110.794C87.982 112.527 89.2023 113.848 90.7619 114.758C92.3216 115.653 94.134 116.101 96.1991 116.101C97.5421 116.101 98.7552 115.913 99.8383 115.538C100.936 115.148 101.882 114.57 102.676 113.805C103.47 113.025 104.084 112.057 104.517 110.902L109.456 112.288C108.936 113.964 108.063 115.437 106.835 116.707C105.608 117.964 104.091 118.946 102.286 119.653C100.481 120.347 98.4519 120.693 96.1991 120.693ZM141.321 94.179L136.729 95.4787C136.44 94.7133 136.014 93.9696 135.451 93.2475C134.902 92.511 134.151 91.9045 133.198 91.4279C132.245 90.9513 131.024 90.7131 129.537 90.7131C127.501 90.7131 125.804 91.1824 124.446 92.1211C123.103 93.0453 122.432 94.2223 122.432 95.652C122.432 96.9228 122.894 97.9265 123.818 98.663C124.742 99.3995 126.186 100.013 128.15 100.504L133.089 101.717C136.064 102.439 138.281 103.544 139.74 105.032C141.198 106.505 141.927 108.404 141.927 110.729C141.927 112.635 141.379 114.339 140.281 115.841C139.198 117.343 137.682 118.527 135.732 119.393C133.783 120.26 131.515 120.693 128.93 120.693C125.537 120.693 122.728 119.957 120.504 118.484C118.28 117.011 116.872 114.859 116.28 112.028L121.132 110.815C121.594 112.606 122.468 113.949 123.753 114.844C125.053 115.74 126.75 116.188 128.844 116.188C131.226 116.188 133.118 115.682 134.519 114.671C135.934 113.646 136.642 112.418 136.642 110.989C136.642 109.833 136.238 108.866 135.429 108.086C134.62 107.292 133.378 106.7 131.703 106.31L126.158 105.01C123.11 104.288 120.872 103.169 119.442 101.652C118.027 100.122 117.319 98.2081 117.319 95.9119C117.319 94.0346 117.847 92.3738 118.901 90.9297C119.969 89.4856 121.421 88.3519 123.255 87.5288C125.103 86.7056 127.197 86.294 129.537 86.294C132.829 86.294 135.414 87.0161 137.292 88.4602C139.184 89.9044 140.527 91.8106 141.321 94.179ZM149.623 120V86.7273H154.735V120H149.623ZM152.222 81.1818C151.226 81.1818 150.367 80.8424 149.644 80.1637C148.937 79.485 148.583 78.669 148.583 77.7159C148.583 76.7628 148.937 75.9469 149.644 75.2681C150.367 74.5894 151.226 74.25 152.222 74.25C153.219 74.25 154.071 74.5894 154.778 75.2681C155.5 75.9469 155.861 76.7628 155.861 77.7159C155.861 78.669 155.5 79.485 154.778 80.1637C154.071 80.8424 153.219 81.1818 152.222 81.1818ZM177.529 133.17C175.059 133.17 172.936 132.853 171.16 132.217C169.384 131.596 167.904 130.773 166.72 129.748C165.55 128.737 164.618 127.654 163.925 126.499L167.998 123.639C168.46 124.246 169.045 124.939 169.752 125.719C170.46 126.513 171.427 127.199 172.655 127.777C173.897 128.369 175.521 128.665 177.529 128.665C180.215 128.665 182.432 128.015 184.179 126.715C185.926 125.415 186.8 123.379 186.8 120.607V113.848H186.367C185.991 114.455 185.457 115.205 184.764 116.101C184.085 116.982 183.103 117.769 181.818 118.462C180.547 119.141 178.829 119.48 176.662 119.48C173.976 119.48 171.565 118.845 169.427 117.574C167.304 116.303 165.622 114.455 164.38 112.028C163.153 109.602 162.539 106.656 162.539 103.19C162.539 99.7822 163.138 96.8145 164.337 94.2873C165.535 91.7456 167.203 89.7816 169.341 88.3952C171.478 86.9944 173.947 86.294 176.749 86.294C178.915 86.294 180.634 86.6551 181.905 87.3771C183.19 88.0848 184.172 88.8935 184.851 89.8033C185.544 90.6986 186.078 91.4351 186.454 92.0128H186.973V86.7273H191.912V120.953C191.912 123.812 191.262 126.138 189.963 127.928C188.677 129.733 186.945 131.055 184.764 131.892C182.598 132.744 180.186 133.17 177.529 133.17ZM177.356 114.888C179.406 114.888 181.139 114.418 182.554 113.48C183.97 112.541 185.045 111.191 185.782 109.429C186.519 107.667 186.887 105.559 186.887 103.104C186.887 100.706 186.526 98.5908 185.804 96.7567C185.082 94.9227 184.013 93.4858 182.598 92.446C181.182 91.4062 179.435 90.8864 177.356 90.8864C175.189 90.8864 173.384 91.4351 171.94 92.5327C170.51 93.6302 169.434 95.1032 168.712 96.9517C168.005 98.8002 167.651 100.851 167.651 103.104C167.651 105.414 168.012 107.458 168.734 109.234C169.471 110.996 170.554 112.382 171.983 113.393C173.427 114.39 175.218 114.888 177.356 114.888ZM206.383 99.9844V120H201.27V86.7273H206.209V91.9261H206.642C207.422 90.2365 208.606 88.879 210.195 87.8537C211.784 86.8139 213.834 86.294 216.347 86.294C218.6 86.294 220.571 86.7562 222.261 87.6804C223.95 88.5902 225.264 89.9766 226.203 91.8395C227.142 93.688 227.611 96.0275 227.611 98.858V120H222.499V99.2045C222.499 96.5907 221.82 94.5545 220.463 93.0959C219.105 91.6229 217.242 90.8864 214.874 90.8864C213.242 90.8864 211.784 91.2402 210.498 91.9478C209.227 92.6554 208.224 93.688 207.487 95.0455C206.751 96.4029 206.383 98.0492 206.383 99.9844Z" fill="white"/>
</svg>
