<svg width="170" height="58" viewBox="0 0 170 58" fill="none" xmlns="http://www.w3.org/2000/svg">
<path d="M0.85245 57.4773V11.7273H9.95046V17.316H10.362C10.7664 16.4207 11.3513 15.5109 12.1167 14.5866C12.8965 13.648 13.9074 12.8681 15.1493 12.2472C16.4057 11.6117 17.9654 11.294 19.8283 11.294C22.2544 11.294 24.4928 11.9295 26.5435 13.2003C28.5942 14.4567 30.2333 16.3557 31.4608 18.8974C32.6883 21.4246 33.302 24.5945 33.302 28.407C33.302 32.1184 32.7027 35.2521 31.5041 37.8082C30.3199 40.3499 28.7025 42.2778 26.6518 43.592C24.6156 44.8917 22.3339 45.5415 19.8066 45.5415C18.0159 45.5415 16.4924 45.2455 15.236 44.6534C13.994 44.0613 12.9759 43.3176 12.1816 42.4222C11.3874 41.5124 10.7808 40.5954 10.362 39.6712H10.0804V57.4773H0.85245ZM9.88548 28.3636C9.88548 30.3421 10.1599 32.0678 10.7086 33.5408C11.2574 35.0138 12.0517 36.1619 13.0914 36.9851C14.1312 37.7938 15.3948 38.1982 16.8823 38.1982C18.3842 38.1982 19.655 37.7866 20.6948 36.9634C21.7346 36.1258 22.5216 34.9705 23.0559 33.4975C23.6047 32.0101 23.8791 30.2988 23.8791 28.3636C23.8791 26.4429 23.6119 24.7533 23.0776 23.2947C22.5433 21.8362 21.7562 20.6953 20.7164 19.8722C19.6767 19.049 18.3986 18.6374 16.8823 18.6374C15.3804 18.6374 14.1096 19.0346 13.0698 19.8288C12.0444 20.6231 11.2574 21.7495 10.7086 23.2081C10.1599 24.6667 9.88548 26.3852 9.88548 28.3636ZM54.6174 45.6499C51.1948 45.6499 48.2488 44.9567 45.7793 43.5703C43.3243 42.1695 41.4325 40.1911 40.1039 37.6349C38.7753 35.0644 38.111 32.0245 38.111 28.5153C38.111 25.0927 38.7753 22.0889 40.1039 19.5039C41.4325 16.9189 43.3026 14.9044 45.7143 13.4602C48.1404 12.0161 50.9854 11.294 54.2491 11.294C56.4442 11.294 58.4876 11.6478 60.3794 12.3555C62.2857 13.0486 63.9464 14.0956 65.3617 15.4964C66.7914 16.8973 67.9034 18.6591 68.6976 20.782C69.4919 22.8904 69.889 25.3598 69.889 28.1903V30.7248H41.7935V25.006H61.2026C61.2026 23.6774 60.9138 22.5005 60.3361 21.4751C59.7585 20.4498 58.957 19.6483 57.9316 19.0707C56.9208 18.4786 55.7438 18.1825 54.4007 18.1825C52.9999 18.1825 51.758 18.5075 50.6749 19.1573C49.6062 19.7927 48.7686 20.652 48.1621 21.7351C47.5556 22.8037 47.2451 23.9951 47.2306 25.3093V30.7464C47.2306 32.3928 47.5339 33.8152 48.1404 35.0138C48.7614 36.2125 49.6351 37.1367 50.7615 37.7866C51.888 38.4364 53.2238 38.7614 54.769 38.7614C55.7943 38.7614 56.733 38.617 57.5851 38.3281C58.4371 38.0393 59.1664 37.6061 59.7729 37.0284C60.3794 36.4508 60.8416 35.7431 61.1593 34.9055L69.6941 35.4688C69.2608 37.5194 68.3727 39.3101 67.0297 40.8409C65.7011 42.3572 63.9825 43.5414 61.8741 44.3935C59.7801 45.2311 57.3612 45.6499 54.6174 45.6499ZM88.1717 45.5415C85.6445 45.5415 83.3555 44.8917 81.3049 43.592C79.2686 42.2778 77.6512 40.3499 76.4526 37.8082C75.2684 35.2521 74.6763 32.1184 74.6763 28.407C74.6763 24.5945 75.2901 21.4246 76.5176 18.8974C77.7451 16.3557 79.377 14.4567 81.4132 13.2003C83.4638 11.9295 85.7095 11.294 88.15 11.294C90.013 11.294 91.5654 11.6117 92.8074 12.2472C94.0637 12.8681 95.0746 13.648 95.84 14.5866C96.6199 15.5109 97.2119 16.4207 97.6163 17.316H97.8979V0.636362H107.104V45H98.0062V39.6712H97.6163C97.1831 40.5954 96.5693 41.5124 95.775 42.4222C94.9952 43.3176 93.9771 44.0613 92.7207 44.6534C91.4788 45.2455 89.9624 45.5415 88.1717 45.5415ZM91.0961 38.1982C92.5835 38.1982 93.8399 37.7938 94.8652 36.9851C95.905 36.1619 96.6993 35.0138 97.248 33.5408C97.8113 32.0678 98.0929 30.3421 98.0929 28.3636C98.0929 26.3852 97.8185 24.6667 97.2697 23.2081C96.7209 21.7495 95.9267 20.6231 94.8869 19.8288C93.8471 19.0346 92.5835 18.6374 91.0961 18.6374C89.5797 18.6374 88.3017 19.049 87.2619 19.8722C86.2221 20.6953 85.4351 21.8362 84.9007 23.2947C84.3664 24.7533 84.0993 26.4429 84.0993 28.3636C84.0993 30.2988 84.3664 32.0101 84.9007 33.4975C85.4495 34.9705 86.2366 36.1258 87.2619 36.9634C88.3017 37.7866 89.5797 38.1982 91.0961 38.1982ZM114.691 45V11.7273H123.638V17.5327H123.984C124.591 15.4676 125.609 13.9079 127.039 12.8537C128.468 11.785 130.115 11.2507 131.978 11.2507C132.44 11.2507 132.938 11.2796 133.472 11.3374C134.007 11.3951 134.476 11.4745 134.88 11.5756V19.7638C134.447 19.6339 133.848 19.5183 133.082 19.4173C132.317 19.3162 131.617 19.2656 130.981 19.2656C129.624 19.2656 128.411 19.5617 127.342 20.1538C126.288 20.7314 125.45 21.5401 124.829 22.5799C124.223 23.6197 123.919 24.8183 123.919 26.1758V45H114.691ZM153.136 45.6499C149.771 45.6499 146.861 44.935 144.406 43.5053C141.965 42.0612 140.081 40.0539 138.752 37.4833C137.424 34.8983 136.759 31.9018 136.759 28.4936C136.759 25.0566 137.424 22.0528 138.752 19.4822C140.081 16.8973 141.965 14.8899 144.406 13.4602C146.861 12.0161 149.771 11.294 153.136 11.294C156.501 11.294 159.403 12.0161 161.844 13.4602C164.299 14.8899 166.191 16.8973 167.519 19.4822C168.848 22.0528 169.512 25.0566 169.512 28.4936C169.512 31.9018 168.848 34.8983 167.519 37.4833C166.191 40.0539 164.299 42.0612 161.844 43.5053C159.403 44.935 156.501 45.6499 153.136 45.6499ZM153.179 38.5014C154.71 38.5014 155.988 38.0682 157.013 37.2017C158.039 36.3208 158.811 35.1222 159.331 33.6058C159.865 32.0895 160.133 30.3638 160.133 28.4286C160.133 26.4935 159.865 24.7678 159.331 23.2514C158.811 21.7351 158.039 20.5365 157.013 19.6555C155.988 18.7746 154.71 18.3342 153.179 18.3342C151.634 18.3342 150.334 18.7746 149.28 19.6555C148.24 20.5365 147.453 21.7351 146.919 23.2514C146.399 24.7678 146.139 26.4935 146.139 28.4286C146.139 30.3638 146.399 32.0895 146.919 33.6058C147.453 35.1222 148.24 36.3208 149.28 37.2017C150.334 38.0682 151.634 38.5014 153.179 38.5014Z" fill="white"/>
</svg>
